<svg xmlns="http://www.w3.org/2000/svg"><style>:root svg:not(:target){display:none}</style><svg id="telegram" viewBox="0 0 21 18"><path fill-rule="evenodd" d="M19.96.153a.656.656 0 0 1 .227.612L17.561 16.52a.656.656 0 0 1-1.012.439l-7.878-5.253a.656.656 0 0 1-.149-.956l2.611-3.263-4.36 2.906a.657.657 0 0 1-.658.041L.863 7.81a.656.656 0 0 1 .073-1.205L19.319.038a.657.657 0 0 1 .642.115ZM2.827 7.323 6.362 9.09l7.561-5.04a.656.656 0 0 1 .877.956l-4.805 6.006 6.438 4.292L18.708 1.65 2.826 7.323Z" clip-rule="evenodd"/></svg><svg id="vk" viewBox="0 0 28 17"><path d="M.5 2.339c0-.855.515-1.316 1.545-1.383l3.97.025a.52.52 0 0 1 .533.377c.409 1.257.866 2.343 1.372 3.257.506.913 1.168 1.965 1.985 3.156.071.15.187.226.346.226.125 0 .223-.059.293-.176l.08-.277.027-4.35c0-.302-.075-.503-.226-.604-.151-.1-.431-.176-.84-.226-.32-.05-.48-.235-.48-.553 0-.067.01-.118.027-.151C9.505.57 10.572.025 12.33.025L13.822 0c.675 0 1.234.16 1.678.478.444.318.666.821.666 1.509v5.708c.125.084.24.126.347.126.266 0 .497-.15.692-.453 1.954-2.582 3.011-4.308 3.17-5.18 0-.017.019-.059.054-.126.125-.251.329-.47.613-.654.284-.184.533-.31.746-.377a.554.554 0 0 1 .24-.05h4.13l.266.025c.355 0 .63.16.826.478.07.1.12.21.146.327.027.117.045.234.054.352.009.117.013.184.013.2v.177c-.124.687-.44 1.42-.946 2.2-.506.78-1.15 1.622-1.931 2.528-.782.905-1.27 1.5-1.466 1.785-.16.201-.24.386-.24.554 0 .134.071.285.213.452l3.89 4.627c.213.269.32.562.32.88 0 .386-.16.705-.48.956-.32.252-.701.394-1.145.428l-.453.025h-4.05a.855.855 0 0 0-.106.012.862.862 0 0 1-.107.013c-.39 0-.755-.16-1.092-.478-.125-.134-.96-1.123-2.505-2.967a1.387 1.387 0 0 0-.373-.327c-.07.268-.164.654-.28 1.157-.115.503-.2.863-.253 1.081l-.08.428c-.177.586-.55.938-1.119 1.056l-.373.025h-2.61c-1.475 0-2.945-.637-4.41-1.911-1.466-1.275-2.784-2.922-3.957-4.942C2.738 8.102 1.646 5.75.633 3.068a1.916 1.916 0 0 1-.133-.73Zm16.013 6.513c-.373 0-.71-.096-1.013-.29-.302-.192-.453-.456-.453-.791V1.987c0-.336-.089-.575-.266-.717-.178-.143-.489-.214-.933-.214l-1.518.05c-.764 0-1.341.126-1.732.378.781.352 1.172.922 1.172 1.71V7.62a1.5 1.5 0 0 1-.533 1.043 1.59 1.59 0 0 1-1.066.415c-.532 0-.94-.243-1.225-.729C7.56 6.371 6.53 4.493 5.856 2.716l-.24-.654-3.544-.025c-.231 0-.36.013-.386.038-.027.025-.04.096-.04.213 0 .151.017.31.053.478l.56 1.409c1.491 3.638 3.112 6.505 4.862 8.6 1.75 2.096 3.468 3.144 5.155 3.144h2.665c.106 0 .186-.03.24-.088.053-.06.097-.172.133-.34l.053-.251.506-2.213c.142-.302.267-.503.373-.604a.975.975 0 0 1 .693-.277c.426 0 .861.243 1.305.73l2.265 2.716c.142.218.293.327.453.327h4.396c.533 0 .8-.126.8-.378a.466.466 0 0 0-.08-.251l-3.864-4.552c-.302-.352-.453-.73-.453-1.131 0-.403.142-.788.427-1.157.23-.336.679-.893 1.345-1.673a37.63 37.63 0 0 0 1.745-2.188c.498-.679.826-1.295.986-1.848l.08-.327a.371.371 0 0 1-.027-.163.574.574 0 0 0-.026-.189h-4.183c-.267.1-.48.252-.64.453l-.16.478c-.444 1.156-1.607 2.942-3.49 5.356a1.892 1.892 0 0 1-1.305.503Z" fill="#666"/></svg><svg id="youtube" viewBox="0 0 25 19"><path d="m16.35 8.793-5.236-3.491a.655.655 0 0 0-1.014.545v6.982a.654.654 0 0 0 1.014.546l5.237-3.491a.654.654 0 0 0 0-1.091Zm-4.94 2.814V7.07l3.403 2.27-3.404 2.268Zm12.48-8.563a2.4 2.4 0 0 0-1.452-1.637C18.718-.022 12.751 0 12.5 0c-.25 0-6.218-.022-9.938 1.407A2.4 2.4 0 0 0 1.11 3.044C.827 4.113.5 6.076.5 9.338c0 3.262.327 5.226.61 6.295a2.4 2.4 0 0 0 1.452 1.636c3.72 1.43 9.687 1.407 9.938 1.407h.076c.753 0 6.317-.043 9.862-1.407a2.4 2.4 0 0 0 1.451-1.636c.284-1.07.611-3.033.611-6.295s-.327-5.225-.61-6.294Zm-1.266 12.261a1.09 1.09 0 0 1-.655.742c-3.49 1.342-9.404 1.32-9.469 1.32-.066 0-5.978.022-9.47-1.32a1.09 1.09 0 0 1-.654-.742c-.261-1.003-.567-2.847-.567-5.967 0-3.12.306-4.963.567-5.967a1.09 1.09 0 0 1 .655-.742c3.49-1.342 9.403-1.32 9.469-1.32.066 0 5.978-.022 9.47 1.32a1.092 1.092 0 0 1 .654.742c.262 1.004.567 2.847.567 5.967 0 3.12-.305 4.964-.567 5.968Z" fill="#666"/></svg><svg id="htmlacademy" width="27" height="34" viewBox="0 0 60 60"><path fill="#2E368F" d="M30.2 5H30L10.3 7.1v36.2L30 55l19.7-11.7V7.1L30.2 5zm17 36.8L30 52 12.8 41.8V27l17.1 10.2V39l-11.7-7v1.8L30 40.9v1.9l-11.8-7v1.8l11.8 7 11.9-7.1v-7.6l5.3-3.2v15.1zm-.1-17-4.7 2.8-2.2 1.3-10.3-6.1v1.8l8.8 5.3h-.1l-.2.1-1.3.7-7.3-4.3v1.8l5.8 3.4-1.4.9-4.3-2.6v1.8l2.9 1.7-2.9 1.7-17-10.1 17-10.2 17.2 10zm.1-1.8L29.9 12.8 12.8 23V9.4L30 7.6l17.2 1.8V23z"/></svg><svg id="icon-gift" width="78" height="80" viewBox="0 0 78 80" fill="none"><path d="M64.016 34.713H14.03c-1.754 0-3.182-1.418-3.182-3.16v-9.469c0-1.742 1.428-3.16 3.182-3.16h49.984c1.754 0 3.18 1.418 3.18 3.16v9.469c0 1.742-1.426 3.16-3.18 3.16ZM14.03 21.346a.751.751 0 0 0-.744.738v9.469c0 .407.334.738.744.738h49.984c.41 0 .743-.331.743-.738v-9.469a.75.75 0 0 0-.743-.738H14.03Z" fill="#fff"/><path d="M57.045 67.149H20.999c-3.377 0-6.125-2.73-6.125-6.086V33.502c0-.669.546-1.212 1.219-1.212s1.219.543 1.219 1.212v27.56c0 2.021 1.654 3.665 3.687 3.665h36.046c2.032 0 3.686-1.644 3.686-3.664V33.502c0-.669.546-1.212 1.219-1.212.672 0 1.218.543 1.218 1.212v27.56c0 3.357-2.747 6.087-6.123 6.087Z" fill="#fff"/><path d="M39.023 67.149a1.215 1.215 0 0 1-1.22-1.211V33.502c0-.669.547-1.212 1.22-1.212.672 0 1.218.543 1.218 1.212v32.435c0 .67-.545 1.212-1.218 1.212ZM23.811 21.341c-3.814-2.054-5.238-6.808-3.173-10.6 2.064-3.789 6.848-5.204 10.665-3.154 5.814 3.13 8.954 11.86 9.084 12.23l-2.3.804c-.029-.083-2.961-8.222-7.944-10.904-2.635-1.415-5.937-.438-7.36 2.177-1.426 2.618-.444 5.9 2.19 7.318l-1.162 2.13Z" fill="#fff"/><path d="m54.231 21.341-1.16-2.13a5.376 5.376 0 0 0 2.622-3.207 5.327 5.327 0 0 0-.431-4.109 5.382 5.382 0 0 0-3.226-2.604 5.426 5.426 0 0 0-4.134.426c-4.982 2.682-7.915 10.82-7.944 10.903l-2.3-.803c.131-.37 3.27-9.101 9.084-12.23a7.859 7.859 0 0 1 5.99-.617 7.8 7.8 0 0 1 4.674 3.771 7.72 7.72 0 0 1 .623 5.953 7.788 7.788 0 0 1-3.798 4.647ZM61.95 50.931H16.093a1.215 1.215 0 0 1-1.219-1.21c0-.67.546-1.212 1.219-1.212H61.95c.672 0 1.218.543 1.218 1.211 0 .669-.545 1.211-1.218 1.211Z" fill="#fff"/></svg><svg id="logo-desktop" width="202" height="60" viewBox="0 0 202 60" fill="none"><g clip-path="url(#clip0_2403_995)"><path d="M59.883 24.21a25.808 25.808 0 0 0-8.053-10.552 25.493 25.493 0 0 0-12.193-5.105 25.409 25.409 0 0 0-13.093 1.699 25.636 25.636 0 0 0-10.515 8.05 25.951 25.951 0 0 0-5.144 12.264 26.04 26.04 0 0 0 1.595 13.218 25.817 25.817 0 0 0 7.909 10.662 25.5 25.5 0 0 0 12.122 5.272c-.58-2.109-1.17-4.439-1.69-6.91 1.513.99 3.105 1.85 4.76 2.572 0 0 .12 2.179.28 4.61a25.269 25.269 0 0 0 5.33-.474 2.174 2.174 0 0 1 0-.767c.29-1.886 1.09-5.286 1.25-7.475a15.335 15.335 0 0 0 2.9-3.742l-.06.444c-.55 4.297-1.7 8.887-2.4 10.158-.226.42-.505.81-.83 1.16a25.549 25.549 0 0 0 9.941-4.808 25.817 25.817 0 0 0 7.021-8.573 26.065 26.065 0 0 0 .87-21.703Zm-1.47 3.823c-.44.434-1.35.726-1.5-.585-.15-1.311-.19-2.23-.19-2.23s-1.93-3.46-2.65-3.5c-.72-.04-5.831 3.5-7.181 5.044-1.17 1.301-1.4 1.21-1.4 3.5 0 1.725.22 8.242.1 13.225l-8.15 2.189a63.539 63.539 0 0 1-7.801 1.735l-1-5.881h-.14l-2.57-13.285s-3.81-1.453-5.21-1.846a3.73 3.73 0 0 0-4 .635 5.111 5.111 0 0 0-1.285 1.752 5.153 5.153 0 0 0-.446 2.132c.212.469.373.96.48 1.463.05.484-1.2.433-2 .433s-.92-1.452-.29-3.157c.492-1.31 1.1-2.574 1.82-3.773a11.971 11.971 0 0 1 2.07-2.915s.14-.343 1.25-.242c1.11.1 7.28.434 7.28.434l.05-2.29a141.559 141.559 0 0 1 20.242-1.352v1.846a22.362 22.362 0 0 1 8.14-2.017.904.904 0 0 1 .77.393c.34.434 2.41 3.026 2.65 3.4.673.969 1.284 1.98 1.83 3.026a6.32 6.32 0 0 1-.87 1.856v.01Z" fill="#FDC305"/><path d="M56.463 21.86c.47.605.88 1.14 1 1.3.672.97 1.283 1.98 1.83 3.027-.19.64-.48 1.247-.86 1.796-.44.433-1.35.726-1.5-.586-.15-1.31-.21-2.178-.21-2.178s-1.93-3.46-2.65-3.5c-.72-.041-5.83 3.5-7.18 5.043-1.17 1.301-1.4 1.21-1.4 3.5 0 1.513.17 6.708.13 11.328 1.81.202 4.47.707 5.27 1.897 0 0-.29-7.243 7.81-3.45 0 0 .28-9.876 11.46-7.344a43.781 43.781 0 0 0-13.7-10.834ZM45.932 19.52a92.02 92.02 0 0 0-1.4-16.675s-.15-1.312-.87-.242a14.475 14.475 0 0 0-1.2 4.035 70.276 70.276 0 0 0-12.82.343c-.82-2.775-2.22-4.035-2.89-3.703-.67.333-.75 3.31-.75 3.31l-.33 14.283a141.546 141.546 0 0 1 20.26-1.352Z" fill="#F06351"/><path d="M45.352 47.532c.13-1.08.2-2.512.24-4.096l-8.15 2.19a63.531 63.531 0 0 1-7.8 1.785l1.11 5.044c0 .11 0 .221.07.333 1.512.99 3.104 1.85 4.76 2.572a42.347 42.347 0 0 0 6.88-4.166v.06a15.333 15.333 0 0 0 2.89-3.722Z" fill="#E55645"/><path d="M32.002 16.362c-.05-.101 1 .686 1.41.928.41.242.61.424.61.595 0 .171-.26.343-.62.343s-.92-.121-1-.262c-.08-.142.6 0 .94 0h.29a8.112 8.112 0 0 1-1.63-1.604ZM39.502 16.473s-1 1.291-1.09 1.352c-.09.06-.17.343.19.292a8.025 8.025 0 0 0 1.22-.282c.11-.061.07-.202-.12-.182-.19.02-.68.05-1 .111l.85-1.281s.03-.121-.05-.01ZM36.362 22.636c.463-.206.846-.56 1.09-1.009.28-.665 0-.918-.44-1.008a2.432 2.432 0 0 0-1.75.343c-.39.373-.34.736 0 1.008.337.268.707.491 1.1.666Z" fill="#000"/><path d="M36.002 23.907c-.115.229-.271.434-.46.605a1.721 1.721 0 0 1-1 .384 2.167 2.167 0 0 1-1.54-.444 2.004 2.004 0 0 1-.53-.454 1 1 0 0 0-.36-.252s.75 4.146 2.57 4.812c1.82.665 2.16-.767 2.21-1.15a5.718 5.718 0 0 0-.82-3.269c0-.302-.02-.1-.07-.232Z" fill="#F06351"/><path d="M34.301 25.057a3.482 3.482 0 0 1-2.35-1.442.152.152 0 0 1 0-.202.14.14 0 0 1 .2 0 3.232 3.232 0 0 0 2.11 1.321 2.099 2.099 0 0 0 1.64-1.008l.14-.192.1.222s.38.767 1 .807c.62.04 1.06-.424 1.63-1.301a.144.144 0 0 1 .2-.04.145.145 0 0 1 .04.201c-.666.989-1.296 1.463-1.89 1.422a1.541 1.541 0 0 1-1.12-.736 2.266 2.266 0 0 1-1.7.948Z" fill="#000"/><path d="M36.262 38.635c2.07 0 3.75-1.694 3.75-3.783 0-2.09-1.68-3.783-3.75-3.783-2.072 0-3.75 1.694-3.75 3.783 0 2.09 1.678 3.783 3.75 3.783Z" fill="#FDC305"/><path d="m41.232 31.775-3.13 1.322 1.15-5.68-7.5 9.846 3.13-1.322-1.15 5.69 7.5-9.856Zm-7.39 3.864 4.16-5.457-.81 4.035 2-.828-4.19 5.468.81-4.035-1.97.817ZM32.441 34.156c.62 0 1.12-.506 1.12-1.13 0-.624-.5-1.13-1.12-1.13-.618 0-1.12.506-1.12 1.13 0 .624.502 1.13 1.12 1.13ZM38.962 38.252c.436 0 .79-.357.79-.797a.793.793 0 0 0-.79-.797.793.793 0 0 0-.79.797c0 .44.354.797.79.797ZM39.922 36.063c.193 0 .35-.159.35-.354a.352.352 0 0 0-.35-.353.352.352 0 0 0-.35.353c0 .195.157.353.35.353Z" fill="#111"/><path d="M45.882 21.345a57.737 57.737 0 0 0-5.09 5.256 31.988 31.988 0 0 1-5.31 4.942c-.22-.534-1.63-1.533-1.63-1.533s-3.14-2.169-5.2-3.873a32.023 32.023 0 0 1-3.14-3.027l-2-.11a22.646 22.646 0 0 0 12 8.917c.86-.142 3.28-1.887 5.09-3.31a57.904 57.904 0 0 0 6-5.96 6.45 6.45 0 0 0 1.14-2.018c-1.14.383-1.86.716-1.86.716Z" fill="#F06351"/><path d="m65.223 3.53-8.46 9.523-1.22-2.007L63.693 0l1.53 3.53ZM62.653 17.41l5.54-4.145-.78-3.773-5.4 4.852.64 3.067ZM59.923 49.802l6.13 3.207 3.01-2.36-6.69-2.774-2.45 1.927ZM1.95 6.022l3.07-3.39 9.29 9.08-1.22 2.3-11.14-7.99ZM7.38 16.422l-4.7-3.157-2.4 3.904 5.15 2.42 1.95-3.167ZM13.91 53.01l-4.55 3.379L12.16 60l4.02-4.055-2.27-2.936Z" fill="#FDC305"/><path d="M25.931 28.245s-3.81-1.453-5.21-1.846a3.73 3.73 0 0 0-4 .635 5.11 5.11 0 0 0-1.285 1.752 5.152 5.152 0 0 0-.445 2.132c.211.469.372.96.48 1.463.05.484-1.2.433-2 .433s-.92-1.452-.29-3.157A23.1 23.1 0 0 1 15 25.884C9.55 28.75 0 35.367 0 35.367a45.433 45.433 0 0 1 8.19.242c5.25.534 5 4.71 5 4.71a38.335 38.335 0 0 1 5.63-1.12c2.121-.14 2.271 2.14 2.271 2.14l.53 3.893a18.342 18.342 0 0 1 2.65-2.38 6.023 6.023 0 0 1 4.38-1.312l-2.72-13.295Z" fill="#F06351"/><path d="M85.664 42.367a8.417 8.417 0 0 1-1.4-5.235v-7.566a8.55 8.55 0 0 1 1.38-5.286c.927-1.203 2.51-1.802 4.75-1.795 2.24.007 3.757.535 4.55 1.584a6.82 6.82 0 0 1 1.33 4.529v1.775h-4.14v-1.927a10.173 10.173 0 0 0-.13-1.513 1.7 1.7 0 0 0-.47-.958 1.556 1.556 0 0 0-1.15-.373 1.45 1.45 0 0 0-.868.14c-.269.135-.49.35-.632.616a5.562 5.562 0 0 0-.34 2.22v9.603c-.045.76.088 1.52.39 2.22.145.251.359.455.616.586.258.13.548.183.834.15.282.04.569-.01.82-.145.252-.134.455-.345.58-.602a5.94 5.94 0 0 0 .31-2.21v-2.017h4.14v1.745a7.361 7.361 0 0 1-1.23 4.65c-.88 1.11-2.4 1.655-4.56 1.655-2.16 0-3.85-.605-4.78-1.846ZM101.915 22.777h4.74l4 21.184h-3.94l-.71-4.68h-3.32l-.8 4.65h-4l4.03-21.154Zm3.65 13.84-1.26-8.513-1.25 8.513h2.51ZM113.725 25.965h-3.24v-3.188h10.72v3.188h-3.2v17.966h-4.29l.01-17.966Z" fill="#111"/><path d="M129.616 22.777h8.13v2.2h-5.2v6.99h4.22v2.088h-4.22v7.757h5.25v2.119h-8.18V22.777ZM140.157 22.777h2l6 14.052V22.777h2.44v21.184h-1.87l-6-14.445V43.93h-2.48l-.09-21.154ZM153.828 22.777h8.12v2.2h-5.2v6.99h4.26v2.088h-4.22v7.757h5.22v2.119h-8.18V22.777ZM164.358 22.777h4.22a6.956 6.956 0 0 1 4.67 1.322c1 .878 1.49 2.31 1.49 4.297 0 2.69-.863 4.334-2.59 4.933l3 10.602h-2.84l-2.75-9.926h-2.27v9.926h-2.93V22.777Zm4 9.08a3.844 3.844 0 0 0 2.7-.768 3.614 3.614 0 0 0 .82-2.733 5.95 5.95 0 0 0-.29-2.018 1.89 1.89 0 0 0-1-1.09 4.723 4.723 0 0 0-2.05-.352h-1.29v7l1.11-.04ZM178.679 42.367a9.393 9.393 0 0 1-1.27-5.397v-7.06a13.71 13.71 0 0 1 .5-4.036 4.515 4.515 0 0 1 1.74-2.43 5.87 5.87 0 0 1 3.36-.848 5.216 5.216 0 0 1 2.253.28c.722.258 1.38.672 1.927 1.213a7.108 7.108 0 0 1 1.28 4.67v.787h-2.75v-.656a11.691 11.691 0 0 0-.18-2.34 2.02 2.02 0 0 0-.76-1.24 2.98 2.98 0 0 0-1.72-.414 2.504 2.504 0 0 0-1.81.565 2.587 2.587 0 0 0-.77 1.493c-.127.83-.184 1.67-.17 2.511v7.859a7.63 7.63 0 0 0 .59 3.49 2.832 2.832 0 0 0 2.257 1.058 2.808 2.808 0 0 0 1.238-.316c.384-.199.717-.484.975-.833a8.253 8.253 0 0 0 .61-3.682v-1.493h-2.66V33.46h5.3v10.47h-1.81l-.29-2.43a3.723 3.723 0 0 1-1.4 2.002 3.665 3.665 0 0 1-2.33.691 4.627 4.627 0 0 1-2.288-.38 4.668 4.668 0 0 1-1.822-1.446ZM194.699 36.466l-4.53-13.689h2.72l3.21 10.209 3.16-10.209h2.75l-4.5 13.689v7.465h-2.8l-.01-7.465Z" fill="#444"/></g><defs><clipPath id="clip0_2403_995"><path fill="#fff" d="M0 0h202v60H0z"/></clipPath></defs></svg><svg id="logo-tablet" width="174" height="52" viewBox="0 0 174 52" fill="none"><g clip-path="url(#clip0_3398_487)"><path d="M51.582 20.854a22.231 22.231 0 0 0-6.936-9.09 21.96 21.96 0 0 0-10.503-4.396A21.887 21.887 0 0 0 22.865 8.83a22.083 22.083 0 0 0-9.058 6.934 22.354 22.354 0 0 0-4.43 10.564 22.432 22.432 0 0 0 1.373 11.386 22.238 22.238 0 0 0 6.813 9.184 21.965 21.965 0 0 0 10.442 4.54c-.5-1.815-1.008-3.822-1.456-5.951a27.756 27.756 0 0 0 4.1 2.215s.104 1.877.241 3.971c1.54.027 3.08-.11 4.592-.408a1.874 1.874 0 0 1 0-.66c.25-1.625.939-4.553 1.077-6.439a13.212 13.212 0 0 0 2.498-3.224l-.052.383c-.474 3.701-1.464 7.655-2.067 8.75a4.845 4.845 0 0 1-.715.999 22.006 22.006 0 0 0 8.563-4.141 22.237 22.237 0 0 0 6.047-7.386 22.45 22.45 0 0 0 .749-18.694Zm-1.266 3.293c-.38.374-1.163.626-1.293-.504-.129-1.13-.163-1.92-.163-1.92s-1.663-2.98-2.283-3.015c-.62-.035-5.022 3.015-6.185 4.344-1.008 1.121-1.206 1.043-1.206 3.015 0 1.486.19 7.1.086 11.392l-7.02 1.886a54.724 54.724 0 0 1-6.72 1.494l-.861-5.066h-.12L22.335 24.33s-3.282-1.252-4.488-1.59a3.213 3.213 0 0 0-3.445.547c-.472.417-.85.931-1.107 1.509a4.437 4.437 0 0 0-.384 1.836c.182.404.321.826.414 1.26.043.417-1.034.374-1.723.374-.69 0-.793-1.251-.25-2.72.424-1.129.948-2.217 1.568-3.25a10.312 10.312 0 0 1 1.783-2.51s.12-.296 1.077-.21c.956.088 6.271.374 6.271.374l.043-1.972a121.95 121.95 0 0 1 17.436-1.165v1.59a19.265 19.265 0 0 1 7.011-1.737.778.778 0 0 1 .664.339c.293.373 2.076 2.607 2.283 2.928.579.835 1.105 1.705 1.576 2.607a5.44 5.44 0 0 1-.75 1.599v.008Z" fill="#FDC305"/><path d="M48.636 18.83c.405.52.758.981.862 1.12.579.835 1.105 1.706 1.576 2.607a5.444 5.444 0 0 1-.74 1.547c-.38.373-1.164.625-1.293-.504-.13-1.13-.18-1.877-.18-1.877s-1.663-2.98-2.283-3.015c-.62-.035-5.023 3.015-6.186 4.344-1.008 1.121-1.206 1.043-1.206 3.015 0 1.304.147 5.779.112 9.758 1.56.174 3.851.609 4.54 1.634 0 0-.25-6.239 6.728-2.972 0 0 .241-8.506 9.872-6.325a37.712 37.712 0 0 0-11.802-9.333ZM39.565 16.814A79.248 79.248 0 0 0 38.36 2.45s-.129-1.13-.749-.208a12.47 12.47 0 0 0-1.034 3.475 60.535 60.535 0 0 0-11.043.296c-.707-2.39-1.913-3.476-2.49-3.189-.577.287-.646 2.85-.646 2.85l-.284 12.304a121.956 121.956 0 0 1 17.452-1.165Z" fill="#F06351"/><path d="M39.065 40.943c.112-.93.172-2.163.207-3.527l-7.02 1.885a54.73 54.73 0 0 1-6.72 1.538l.957 4.345c0 .095 0 .19.06.286a27.764 27.764 0 0 0 4.1 2.216 36.485 36.485 0 0 0 5.927-3.589v.053a13.208 13.208 0 0 0 2.49-3.207Z" fill="#E55645"/><path d="M27.566 14.094c-.043-.087.861.59 1.214.8.353.208.526.364.526.512 0 .148-.224.295-.534.295-.31 0-.793-.104-.862-.226-.069-.121.517 0 .81 0h.25a6.99 6.99 0 0 1-1.404-1.381ZM34.026 14.19s-.861 1.112-.939 1.164c-.077.052-.146.295.164.252a6.911 6.911 0 0 0 1.051-.244c.095-.052.06-.173-.103-.156-.164.017-.586.043-.862.096l.732-1.104s.026-.104-.043-.009ZM31.322 19.498c.399-.177.729-.482.938-.868.242-.574 0-.791-.379-.87a2.095 2.095 0 0 0-1.507.296c-.336.322-.293.634 0 .869.29.23.61.423.948.573Z" fill="#000"/><path d="M31.011 20.593a1.78 1.78 0 0 1-.396.522c-.245.199-.547.314-.861.33a1.866 1.866 0 0 1-1.327-.383 1.725 1.725 0 0 1-.456-.39.862.862 0 0 0-.31-.218s.645 3.572 2.213 4.145c1.568.573 1.86-.66 1.904-.99a4.925 4.925 0 0 0-.706-2.816c0-.26-.018-.087-.06-.2Z" fill="#F06351"/><path d="M29.547 21.584a2.998 2.998 0 0 1-2.024-1.243.131.131 0 0 1 0-.173.122.122 0 0 1 .086-.037.121.121 0 0 1 .086.037 2.785 2.785 0 0 0 1.817 1.138 1.806 1.806 0 0 0 1.413-.87l.12-.164.087.191s.327.66.861.695c.534.035.913-.365 1.404-1.12a.123.123 0 0 1 .172-.035.125.125 0 0 1 .035.173c-.574.852-1.117 1.26-1.628 1.225a1.328 1.328 0 0 1-.965-.634 1.954 1.954 0 0 1-1.464.817Z" fill="#000"/><path d="M31.235 33.28c1.784 0 3.23-1.46 3.23-3.259 0-1.8-1.446-3.258-3.23-3.258s-3.23 1.458-3.23 3.258 1.446 3.258 3.23 3.258Z" fill="#FDC305"/><path d="m35.516 27.37-2.696 1.14.99-4.893-6.46 8.48 2.697-1.138-.991 4.901 6.46-8.49ZM29.151 30.7l3.583-4.701-.698 3.476 1.723-.713-3.61 4.71.699-3.476-1.697.704ZM27.945 29.422a.969.969 0 0 0 .965-.974.97.97 0 0 0-.965-.973.97.97 0 0 0-.965.973c0 .538.432.974.965.974ZM33.561 32.95c.376 0 .68-.308.68-.687a.684.684 0 0 0-.68-.687.684.684 0 0 0-.68.687c0 .379.304.686.68.686ZM34.388 31.064a.303.303 0 0 0 .302-.304.303.303 0 0 0-.302-.305.303.303 0 0 0-.301.305c0 .168.135.304.301.304Z" fill="#111"/><path d="M39.522 18.386a49.73 49.73 0 0 0-4.384 4.527 27.555 27.555 0 0 1-4.574 4.258c-.19-.46-1.405-1.32-1.405-1.32s-2.704-1.869-4.48-3.337a27.578 27.578 0 0 1-2.704-2.607l-1.723-.096a19.507 19.507 0 0 0 10.337 7.681c.741-.121 2.826-1.624 4.385-2.85a49.885 49.885 0 0 0 5.169-5.135c.429-.514.761-1.103.982-1.738-.982.33-1.603.617-1.603.617ZM22.337 24.33s-3.282-1.252-4.488-1.59a3.213 3.213 0 0 0-3.446.547c-.472.417-.85.931-1.107 1.509a4.439 4.439 0 0 0-.383 1.836c.182.404.32.826.413 1.26.043.417-1.033.374-1.723.374-.689 0-.792-1.251-.25-2.72.424-1.129.949-2.217 1.568-3.25C8.227 24.764 0 30.464 0 30.464a39.136 39.136 0 0 1 7.055.209c4.523.46 4.307 4.058 4.307 4.058a33.033 33.033 0 0 1 4.85-.965c1.826-.121 1.956 1.842 1.956 1.842l.456 3.354a15.804 15.804 0 0 1 2.283-2.05 5.189 5.189 0 0 1 3.773-1.13L22.337 24.33Z" fill="#F06351"/><path d="M73.79 36.495a7.25 7.25 0 0 1-1.206-4.51v-6.517a7.364 7.364 0 0 1 1.189-4.553c.798-1.037 2.162-1.553 4.091-1.547 1.93.006 3.236.46 3.92 1.364a5.875 5.875 0 0 1 1.145 3.902v1.53h-3.566v-1.66a8.768 8.768 0 0 0-.112-1.304 1.464 1.464 0 0 0-.405-.825 1.341 1.341 0 0 0-.99-.322 1.248 1.248 0 0 0-1.292.652 4.79 4.79 0 0 0-.293 1.911v8.273c-.04.654.076 1.31.336 1.911a1.265 1.265 0 0 0 1.25.634c.241.035.488-.008.705-.124.216-.115.391-.297.5-.519a5.114 5.114 0 0 0 .267-1.902V31.15h3.566v1.503a6.342 6.342 0 0 1-1.06 4.006c-.758.955-2.067 1.425-3.928 1.425-1.86 0-3.316-.522-4.117-1.59ZM87.788 19.62h4.083l3.446 18.247h-3.394l-.612-4.031h-2.86l-.689 4.005h-3.445l3.471-18.22Zm3.144 11.922-1.085-7.334-1.077 7.334h2.162ZM97.962 22.366H95.17V19.62h9.234v2.746h-2.757V37.84h-3.695l.008-15.475Z" fill="#111"/><path d="M111.65 19.62h7.003v1.894h-4.479v6.022h3.635v1.799h-3.635v6.682h4.522v1.824h-7.046v-18.22ZM120.729 19.62h1.723l5.168 12.104V19.62h2.102v18.247h-1.611l-5.168-12.442V37.84h-2.136l-.078-18.22ZM132.505 19.62h6.994v1.894h-4.479v6.022h3.67v1.799h-3.635v6.682h4.496v1.824h-7.046v-18.22ZM141.576 19.62h3.635a5.994 5.994 0 0 1 4.023 1.138c.861.756 1.283 1.99 1.283 3.702 0 2.317-.744 3.733-2.231 4.249l2.584 9.132h-2.446l-2.369-8.55H144.1v8.55h-2.524v-18.22Zm3.445 7.82c.83.081 1.66-.154 2.326-.66a3.115 3.115 0 0 0 .706-2.355 5.12 5.12 0 0 0-.249-1.738 1.645 1.645 0 0 0-.862-.938 4.068 4.068 0 0 0-1.766-.304h-1.111v6.03l.956-.035ZM153.911 36.495a8.104 8.104 0 0 1-1.094-4.65v-6.082a11.857 11.857 0 0 1 .431-3.475 3.894 3.894 0 0 1 1.499-2.094 5.056 5.056 0 0 1 2.894-.73c.657-.063 1.32.02 1.941.241a4.526 4.526 0 0 1 1.66 1.045 6.12 6.12 0 0 1 1.102 4.023v.678h-2.368v-.565a10.088 10.088 0 0 0-.155-2.016 1.742 1.742 0 0 0-.655-1.069 2.567 2.567 0 0 0-1.482-.356 2.158 2.158 0 0 0-1.559.486 2.229 2.229 0 0 0-.663 1.287c-.109.715-.158 1.439-.147 2.163v6.769a6.575 6.575 0 0 0 .509 3.006 2.434 2.434 0 0 0 1.944.912 2.426 2.426 0 0 0 1.906-.99 7.111 7.111 0 0 0 .526-3.171V30.62h-2.292v-1.799h4.566v9.02h-1.56l-.249-2.095a3.211 3.211 0 0 1-1.206 1.725 3.158 3.158 0 0 1-2.007.595 3.985 3.985 0 0 1-1.971-.328 4.02 4.02 0 0 1-1.57-1.244ZM167.711 31.411l-3.902-11.79h2.343l2.765 8.793 2.722-8.794h2.369l-3.876 11.791v6.43h-2.412l-.009-6.43Z" fill="#444"/></g><defs><clipPath id="clip0_3398_487"><path fill="#fff" d="M0 0h174v51.683H0z"/></clipPath></defs></svg><svg id="logo-phone" width="191" height="38" viewBox="0 0 191 38" fill="none"><g clip-path="url(#clip0_88566_566)"><path d="M6.07 20.72v-2.26a143.265 143.265 0 0 1 20.17-1.33c0 .6 0 1.21-.06 1.82a25.518 25.518 0 0 1 6-1.82A16.67 16.67 0 0 0 .19 20.39l5.88.33ZM27.24 24.23c-1.16 1.28-1.39 1.2-1.39 3.45v9.18A16.64 16.64 0 0 0 33.32 23a17.302 17.302 0 0 0-.32-3.1 33.113 33.113 0 0 0-5.76 4.33ZM6.36 25.72s-3.79-1.44-5.19-1.83A8.541 8.541 0 0 0 0 23.61a16.65 16.65 0 0 0 8.68 14L6.36 25.72Z" fill="#FDC305"/><path d="M26.29 17.12A89.799 89.799 0 0 0 24.89.65S24.75-.64 24 .41a14.22 14.22 0 0 0-1.2 3.94 70.34 70.34 0 0 0-12.77.34C9.24 2 7.85.75 7.18 1c-.67.25-.72 3.31-.72 3.31l-.33 14.1a143.211 143.211 0 0 1 20.16-1.29Z" fill="#F06351"/><path d="M12.41 14c0-.09 1 .68 1.41.92.41.24.61.42.61.59 0 .17-.27.34-.63.34s-.91-.12-1-.27h1.23A8.34 8.34 0 0 1 12.41 14ZM19.89 14.11l-1.09 1.33c0 .06-.17.35.18.3a7.351 7.351 0 0 0 1.22-.29c.11 0 .07-.19-.11-.17-.18.02-.69.05-1 .11l.84-1.26s.07-.13-.04-.02ZM16.75 20.2a2.3 2.3 0 0 0 1.09-1c.28-.65 0-.91-.44-1a2.43 2.43 0 0 0-1.74.34c-.39.36-.34.72-.05 1a5.34 5.34 0 0 0 1.14.66Z" fill="#000"/><path d="M16.35 21.45a1.92 1.92 0 0 1-.46.6 1.73 1.73 0 0 1-1 .38 2.15 2.15 0 0 1-1.47-.43 2.3 2.3 0 0 1-.53-.44c-.1-.11-.223-.2-.36-.26 0 0 .75 4.1 2.57 4.75 1.82.65 2.14-.75 2.2-1.13a5.61 5.61 0 0 0-.82-3.23c-.02-.31-.03-.11-.13-.24Z" fill="#F06351"/><path d="M14.71 22.59a3.44 3.44 0 0 1-2.361-1.466.14.14 0 0 1 .031-.154.14.14 0 0 1 .2 0 3.26 3.26 0 0 0 2.11 1.3 2.09 2.09 0 0 0 1.63-1l.14-.19.1.21s.37.76 1 .8c.63.04 1.05-.41 1.61-1.28a.14.14 0 0 1 .2 0 .15.15 0 0 1 .05.2c-.64 1-1.27 1.44-1.88 1.4a1.549 1.549 0 0 1-1.12-.76 2.26 2.26 0 0 1-1.71.94Z" fill="#000"/><path d="M26.24 18.92a58.634 58.634 0 0 0-5.07 5.19A31.633 31.633 0 0 1 15.88 29c-.22-.53-1.62-1.51-1.62-1.51s-3.13-2.14-5.18-3.82a34.139 34.139 0 0 1-3.13-3l-2-.11a22.57 22.57 0 0 0 12 8.8c.86-.14 3.27-1.86 5.07-3.26a58.13 58.13 0 0 0 5.94-5.89 6.15 6.15 0 0 0 1.14-2c-1.1.39-1.86.71-1.86.71Z" fill="#F06351"/></g><g clip-path="url(#clip1_88566_566)"><path d="M91.264 29.346A6.856 6.856 0 0 1 90 25.042v-6.38a6.94 6.94 0 0 1 1.186-4.38c.869-1 2.212-1.461 4.188-1.461 1.976 0 3.24.461 4.03 1.306a5.41 5.41 0 0 1 1.186 3.767v1.537h-3.873v-1.768a3.685 3.685 0 0 0-.237-1.537 1.12 1.12 0 0 0-.456-.472 1.164 1.164 0 0 0-.65-.143c-.553 0-.948.154-1.106.538a4.838 4.838 0 0 0-.237 1.691v8.224a3.108 3.108 0 0 0 .316 1.614c.158.384.553.538 1.106.538s.87-.154 1.027-.538c.18-.52.26-1.066.237-1.614V24.12h3.873v1.538a5.768 5.768 0 0 1-1.186 3.843c-.79.922-2.133 1.383-4.03 1.383-1.897-.077-3.32-.538-4.11-1.537ZM105.253 13.053h4.504l3.32 17.524h-3.636l-.632-3.69h-2.608l-.632 3.69h-3.715l3.399-17.524Zm3.24 11.529-.948-6.84-.949 6.84h1.897ZM115.843 15.973h-2.687v-2.92h9.404v2.843h-2.687v14.681h-4.03V15.973ZM129.752 13.053h6.955v1.844h-4.505v5.765h3.635v1.768h-3.635v6.456h4.505v1.768h-7.034V13.053h.079ZM138.761 13.053h1.739l5.137 11.606V13.053h2.055v17.524h-1.581l-5.216-11.99v11.99h-2.134V13.053ZM150.063 13.053h6.954v1.844h-4.504v5.765h3.635v1.768h-3.635v6.456h4.504v1.768h-6.954V13.053ZM159.072 13.053h3.635a6.457 6.457 0 0 1 4.031 1.076c.869.692 1.264 1.921 1.264 3.536 0 2.229-.711 3.612-2.212 4.073l2.528 8.762h-2.449l-2.371-8.224h-1.976V30.5h-2.529V13.053h.079Zm3.477 7.532a3.525 3.525 0 0 0 2.292-.615c.474-.384.711-1.153.711-2.305a4.831 4.831 0 0 0-.237-1.691 1.974 1.974 0 0 0-.869-.923 3.693 3.693 0 0 0-1.739-.307h-1.106v5.764h.948v.077ZM171.164 29.27a7.596 7.596 0 0 1-1.107-4.458v-5.841a12.288 12.288 0 0 1 .395-3.305 3.917 3.917 0 0 1 1.502-1.998 5.275 5.275 0 0 1 2.924-.692c1.66 0 2.845.384 3.556 1.23a5.765 5.765 0 0 1 1.107 3.843v.614h-2.371v-.538a11.15 11.15 0 0 0-.158-1.921 1.532 1.532 0 0 0-.633-1 2.493 2.493 0 0 0-1.501-.384 2.419 2.419 0 0 0-1.581.461 1.733 1.733 0 0 0-.632 1.23c-.104.688-.157 1.381-.158 2.076v6.533a6.806 6.806 0 0 0 .474 2.92c.316.615.949.846 1.897.846.374.045.754-.018 1.092-.182.337-.164.617-.422.805-.74a6.911 6.911 0 0 0 .553-3.075v-1.23h-2.292v-1.767h4.584v8.685h-1.581l-.237-1.999a3.141 3.141 0 0 1-1.226 1.657 3.29 3.29 0 0 1-2.014.573 4.05 4.05 0 0 1-1.899-.352 3.927 3.927 0 0 1-1.499-1.186ZM184.678 24.43l-3.873-11.3h2.371l2.766 8.455 2.687-8.454H191l-3.872 11.298v6.15h-2.371v-6.15h-.079Z" fill="#111"/></g><defs><clipPath id="clip0_88566_566"><path fill="#fff" d="M0 0h33.32v37.61H0z"/></clipPath><clipPath id="clip1_88566_566"><path fill="#fff" transform="translate(90 12.82)" d="M0 0h101v17.985H0z"/></clipPath></defs></svg><svg id="logo-text" width="128" height="24" viewBox="0 0 128 24"><g clip-path="url(#clip0_83854_353)"><path d="M1.603 22.051A9.498 9.498 0 0 1 0 16.308V7.795a9.63 9.63 0 0 1 1.502-5.846C2.604.615 4.307 0 6.811 0s4.106.615 5.108 1.744a7.487 7.487 0 0 1 1.502 5.025v2.052H8.513V6.46a5.157 5.157 0 0 0-.3-2.05 1.463 1.463 0 0 0-.579-.63 1.415 1.415 0 0 0-.823-.191c-.701 0-1.202.205-1.403.718a6.774 6.774 0 0 0-.3 2.256v10.974a4.334 4.334 0 0 0 .4 2.154c.2.513.702.718 1.403.718.7 0 1.102-.205 1.302-.718.228-.693.33-1.423.3-2.154v-2.461h4.908v2.051a7.98 7.98 0 0 1-1.502 5.128c-1.002 1.231-2.705 1.847-5.108 1.847-2.404-.103-4.207-.718-5.208-2.052ZM19.33.308h5.71l4.206 23.384h-4.607l-.802-4.923h-3.305l-.801 4.923h-4.708L19.33.308Zm4.107 15.384-1.202-9.128-1.202 9.128h2.404ZM32.751 4.205h-3.405V.308h11.918v3.794H37.86v19.59h-5.108V4.205ZM50.379.308h8.814v2.461h-5.71v7.692h4.608v2.36h-4.607v8.615h5.709v2.359h-8.914V.308h.1ZM61.797.308H64l6.51 15.487V.308h2.604v23.384h-2.003l-6.61-16v16h-2.704V.308ZM76.119.308h8.814v2.461h-5.71v7.692h4.608v2.36h-4.607v8.615h5.709v2.359h-8.814V.308ZM87.537.308h4.607a7.873 7.873 0 0 1 5.108 1.436c1.102.923 1.602 2.564 1.602 4.717 0 2.975-.901 4.821-2.804 5.436l3.205 11.693H96.15l-3.005-10.975h-2.503V23.59h-3.205V.308h.1Zm4.407 10.05a4.301 4.301 0 0 0 2.904-.82c.601-.512.902-1.538.902-3.077a6.772 6.772 0 0 0-.3-2.256 2.583 2.583 0 0 0-1.103-1.23 4.473 4.473 0 0 0-2.203-.411h-1.402v7.692h1.202v.103ZM102.861 21.949a10.566 10.566 0 0 1-1.402-5.95V8.206c-.025-1.486.143-2.97.5-4.41a5.204 5.204 0 0 1 1.903-2.667 6.421 6.421 0 0 1 3.706-.923c2.103 0 3.606.513 4.507 1.641a7.982 7.982 0 0 1 1.402 5.128v.82h-3.004v-.717a15.503 15.503 0 0 0-.201-2.564 2.056 2.056 0 0 0-.801-1.334 3.04 3.04 0 0 0-1.903-.512 2.955 2.955 0 0 0-2.003.615 2.349 2.349 0 0 0-.801 1.641 19.734 19.734 0 0 0-.201 2.77v8.717a9.527 9.527 0 0 0 .601 3.898c.401.82 1.202 1.128 2.404 1.128.475.06.956-.024 1.384-.243a2.45 2.45 0 0 0 1.02-.988 9.635 9.635 0 0 0 .701-4.102V14.46h-2.905v-2.359h5.809v11.59h-2.003l-.3-2.666a4.18 4.18 0 0 1-1.554 2.21 4.016 4.016 0 0 1-2.553.764 4.907 4.907 0 0 1-2.406-.47 5.037 5.037 0 0 1-1.9-1.581ZM119.987 15.487 115.08.41h3.005l3.505 11.282L124.995.41H128l-4.908 15.077v8.205h-3.004v-8.205h-.101Z"/></g><defs><clipPath id="clip0_83854_353"><path fill="#fff" d="M0 0h128v24H0z"/></clipPath></defs></svg><svg id="email" width="18" height="14" viewBox="0 0 18 14" fill="none"><path d="M.5 5.5v8h17v-8M.5.5h17v2L9 8.5l-8.5-6v-2Z" stroke="#000" stroke-linecap="round" stroke-linejoin="round"/></svg><svg id="phone" width="16" height="16" viewBox="0 0 16 16" fill="none" xmlns="http://www.w3.org/2000/svg"><path d="M7 8h8.5m0 0L13 5.5M15.5 8 13 10.5M5.5.5v5h-3v5h3v5H3c-1.5 0-2.5-1-2.5-2.5V3C.5 1.5 1.5.5 3 .5h2.5Z" stroke="#000" stroke-linecap="round" stroke-linejoin="round"/></svg></svg>